<svg width="776" height="648" viewBox="0 0 776 648" fill="none" xmlns="http://www.w3.org/2000/svg">
<g clip-path="url(#clip0_2_2)">
<path d="M666.892 535.421C653.798 571.46 636.96 607.421 615.388 641.649C614.909 642.419 614.425 643.175 613.937 643.943L560.532 628.066C560.839 627.339 561.175 626.526 561.537 625.639C583.077 573.29 713.036 254.34 707.203 191.454C707.831 196.601 728.161 366.952 666.892 535.421Z" fill="#4A9344"/>
<path d="M625.691 644.712C624.965 645.409 624.221 646.101 623.47 646.777L583.407 634.867C583.949 634.251 584.58 633.525 585.305 632.705C597.17 619.088 632.446 578.318 666.892 535.421C703.909 489.322 739.975 440.774 745.03 420.825C744.015 425.362 712.403 563.452 625.691 644.712Z" fill="#4A9344"/>
<path d="M645.717 113.645C645.702 113.645 645.688 113.649 645.673 113.65V32.9449C645.673 24.2074 641.979 15.8277 635.405 9.64934C628.83 3.47097 619.913 0 610.615 0H341.746C332.448 0 323.531 3.47097 316.957 9.64934C310.382 15.8277 306.689 24.2074 306.689 32.9449V74.3184C305.946 74.3333 305.24 74.6207 304.72 75.1191C304.201 75.6175 303.909 76.2872 303.909 76.9849V97.4776C303.909 98.1753 304.201 98.8451 304.72 99.3434C305.24 99.8417 305.946 100.129 306.689 100.144V121.612H306.546C306.173 121.612 305.803 121.681 305.458 121.815C305.113 121.949 304.799 122.146 304.535 122.394C304.271 122.643 304.062 122.937 303.919 123.261C303.776 123.586 303.702 123.933 303.702 124.284V163.912C303.702 164.263 303.776 164.61 303.919 164.935C304.062 165.259 304.271 165.553 304.535 165.802C304.799 166.05 305.113 166.247 305.458 166.381C305.803 166.515 306.173 166.584 306.546 166.584H306.689V182.323H306.644C306.271 182.323 305.901 182.392 305.556 182.527C305.211 182.661 304.898 182.858 304.634 183.106C304.369 183.354 304.16 183.649 304.017 183.973C303.874 184.297 303.801 184.645 303.801 184.996V225.011C303.801 225.362 303.874 225.709 304.017 226.034C304.16 226.358 304.369 226.653 304.634 226.901C304.898 227.149 305.211 227.346 305.556 227.48C305.901 227.614 306.271 227.683 306.644 227.683H306.689V614.481C306.689 623.218 310.382 631.598 316.957 637.776C323.531 643.955 332.448 647.426 341.746 647.426H610.615C619.913 647.426 628.83 643.955 635.405 637.776C641.979 631.598 645.673 623.218 645.673 614.481V192.122C645.688 192.122 645.702 192.126 645.717 192.126C646.382 192.126 647.041 192.003 647.655 191.764C648.269 191.525 648.827 191.174 649.298 190.732C649.768 190.291 650.141 189.766 650.395 189.189C650.65 188.611 650.781 187.993 650.781 187.368V118.404C650.781 117.142 650.247 115.931 649.298 115.039C648.348 114.147 647.06 113.645 645.717 113.645Z" fill="#3F3D56"/>
<path d="M624.741 42.1667V605.25C624.738 611.959 621.9 618.392 616.851 623.135C611.802 627.878 604.955 630.543 597.816 630.543H354.545C347.406 630.543 340.559 627.878 335.51 623.135C330.461 618.392 327.624 611.959 327.621 605.25V42.1667C327.621 35.4563 330.458 29.0206 335.507 24.2756C340.556 19.5306 347.404 16.8649 354.545 16.8649H390.948V21.3049C390.951 26.8297 393.288 32.1275 397.445 36.0342C401.602 39.9408 407.239 42.1366 413.118 42.139H536.886C542.757 42.1268 548.383 39.9264 552.53 36.0206C556.677 32.1147 559.007 26.8225 559.007 21.3049V16.911H597.816C604.949 16.911 611.789 19.5704 616.837 24.3055C621.885 29.0405 624.728 35.4643 624.741 42.1667Z" fill="white"/>
<path d="M230.257 315.956C228.818 315.432 227.275 315.212 225.736 315.309C224.197 315.407 222.699 315.821 221.348 316.521C219.998 317.221 218.827 318.192 217.918 319.363C217.01 320.535 216.386 321.879 216.09 323.302L129.4 367.599L144.642 383.72L225.149 335.167C227.726 335.475 230.333 334.885 232.477 333.507C234.621 332.13 236.154 330.061 236.783 327.693C237.413 325.325 237.096 322.823 235.893 320.659C234.69 318.496 232.685 316.823 230.257 315.956H230.257Z" fill="#FFB8B8"/>
<path d="M208.148 634.67L218.95 628.104L197.14 585.823L181.197 595.514L208.148 634.67Z" fill="#FFB8B8"/>
<path d="M246.271 624.866L212.321 645.503L203.836 633.176L225.16 620.215C228.509 618.179 232.581 617.477 236.48 618.263C240.38 619.049 243.788 621.258 245.954 624.405L246.271 624.866L246.271 624.866Z" fill="#2F2E41"/>
<path d="M86.9424 636.197H99.8073L105.93 589.565H86.9424V636.197Z" fill="#FFB8B8"/>
<path d="M124.619 647.423H84.1858V632.743H109.581C111.556 632.743 113.512 633.108 115.336 633.818C117.16 634.528 118.818 635.569 120.215 636.882C121.611 638.194 122.719 639.752 123.474 641.466C124.23 643.181 124.619 645.018 124.619 646.874V647.423V647.423Z" fill="#2F2E41"/>
<path d="M382.106 91.3784H355.585C354.934 91.3784 354.309 91.1353 353.848 90.7025C353.388 90.2697 353.129 89.6828 353.129 89.0707C353.129 88.4587 353.388 87.8717 353.848 87.4389C354.309 87.0061 354.934 86.763 355.585 86.763H382.106C382.758 86.763 383.382 87.0061 383.843 87.4389C384.303 87.8717 384.562 88.4587 384.562 89.0707C384.562 89.6828 384.303 90.2697 383.843 90.7025C383.382 91.1353 382.758 91.3784 382.106 91.3784V91.3784Z" fill="#3F3D56"/>
<path d="M382.106 97.84H355.585C354.934 97.84 354.309 97.5969 353.848 97.1641C353.388 96.7313 353.129 96.1444 353.129 95.5323C353.129 94.9203 353.388 94.3333 353.848 93.9005C354.309 93.4677 354.934 93.2246 355.585 93.2246H382.106C382.758 93.2246 383.382 93.4677 383.843 93.9005C384.303 94.3333 384.562 94.9203 384.562 95.5323C384.562 96.1444 384.303 96.7313 383.843 97.1641C383.382 97.5969 382.758 97.84 382.106 97.84V97.84Z" fill="#3F3D56"/>
<path d="M382.106 104.302H355.585C354.934 104.302 354.309 104.059 353.848 103.626C353.388 103.193 353.129 102.606 353.129 101.994C353.129 101.382 353.388 100.795 353.848 100.362C354.309 99.9293 354.934 99.6862 355.585 99.6862H382.106C382.758 99.6862 383.382 99.9293 383.843 100.362C384.303 100.795 384.562 101.382 384.562 101.994C384.562 102.606 384.303 103.193 383.843 103.626C383.382 104.059 382.758 104.302 382.106 104.302V104.302Z" fill="#3F3D56"/>
<path d="M587.689 97.8861H586.795L586.451 97.6184C587.58 96.3536 588.199 94.7555 588.2 93.1045C588.192 91.7463 587.756 90.4207 586.946 89.2953C586.137 88.17 584.99 87.2956 583.652 86.7825C582.314 86.2695 580.844 86.1409 579.427 86.4131C578.011 86.6852 576.713 87.3459 575.696 88.3115C574.68 89.2771 573.991 90.5043 573.716 91.8379C573.442 93.1716 573.595 94.5517 574.155 95.8038C574.715 97.0559 575.658 98.1237 576.864 98.8723C578.07 99.6209 579.486 100.017 580.931 100.009C582.683 99.9976 584.376 99.4171 585.724 98.3662L586.058 98.6338V99.4831L591.697 104.791L593.386 103.203L587.689 97.8861ZM580.931 97.8861C579.925 97.8898 578.94 97.6129 578.101 97.0906C577.262 96.5682 576.607 95.8238 576.218 94.9515C575.829 94.0792 575.724 93.1181 575.917 92.1899C576.109 91.2616 576.591 90.4079 577.299 89.7366C578.008 89.0653 578.913 88.6066 579.899 88.4185C580.886 88.2304 581.909 88.3214 582.84 88.6799C583.771 89.0384 584.569 89.6484 585.131 90.4327C585.693 91.217 585.995 92.1404 585.999 93.0861L585.999 93.1045C586.003 93.7288 585.876 94.3477 585.626 94.9259C585.375 95.504 585.006 96.0301 584.539 96.4741C584.072 96.9181 583.516 97.2714 582.904 97.5136C582.292 97.7559 581.635 97.8824 580.97 97.8861C580.957 97.8861 580.944 97.8862 580.931 97.8861H580.931Z" fill="#3F3D56"/>
<path d="M436.137 176.302H388.491C385.625 176.302 382.877 175.233 380.851 173.328C378.824 171.424 377.686 168.841 377.686 166.148C377.686 163.455 378.824 160.873 380.851 158.969C382.877 157.064 385.625 155.995 388.491 155.995H436.137C439.003 155.995 441.751 157.064 443.777 158.969C445.804 160.873 446.942 163.455 446.942 166.148C446.942 168.841 445.804 171.424 443.777 173.328C441.751 175.233 439.003 176.302 436.137 176.302V176.302Z" fill="#ADB5AF"/>
<path d="M582 198.457H383.58C382.017 198.457 380.518 197.873 379.412 196.834C378.307 195.796 377.686 194.387 377.686 192.918C377.686 191.449 378.307 190.04 379.412 189.002C380.518 187.963 382.017 187.379 383.58 187.379H582C583.563 187.379 585.062 187.963 586.167 189.002C587.273 190.04 587.894 191.449 587.894 192.918C587.894 194.387 587.273 195.796 586.167 196.834C585.062 197.873 583.563 198.457 582 198.457Z" fill="#E6E6E6"/>
<path d="M456.465 220.611H383.58C382.017 220.611 380.518 220.027 379.412 218.988C378.307 217.95 377.686 216.541 377.686 215.072C377.686 213.603 378.307 212.194 379.412 211.156C380.518 210.117 382.017 209.534 383.58 209.534H456.465C458.028 209.534 459.527 210.117 460.632 211.156C461.738 212.194 462.359 213.603 462.359 215.072C462.359 216.541 461.738 217.95 460.632 218.988C459.527 220.027 458.028 220.611 456.465 220.611Z" fill="#E6E6E6"/>
<path d="M436.137 421.844H388.491C385.625 421.844 382.877 420.774 380.851 418.87C378.824 416.965 377.686 414.383 377.686 411.69C377.686 408.997 378.824 406.414 380.851 404.51C382.877 402.606 385.625 401.536 388.491 401.536H436.137C439.003 401.536 441.751 402.606 443.777 404.51C445.804 406.414 446.942 408.997 446.942 411.69C446.942 414.383 445.804 416.965 443.777 418.87C441.751 420.774 439.003 421.844 436.137 421.844V421.844Z" fill="#ADB5AF"/>
<path d="M582 443.998H383.58C382.017 443.998 380.518 443.414 379.412 442.376C378.307 441.337 377.686 439.928 377.686 438.459C377.686 436.99 378.307 435.582 379.412 434.543C380.518 433.504 382.017 432.921 383.58 432.921H582C583.563 432.921 585.062 433.504 586.167 434.543C587.273 435.582 587.894 436.99 587.894 438.459C587.894 439.928 587.273 441.337 586.167 442.376C585.062 443.414 583.563 443.998 582 443.998V443.998Z" fill="#E6E6E6"/>
<path d="M456.465 466.152H383.58C382.017 466.152 380.518 465.568 379.412 464.53C378.307 463.491 377.686 462.082 377.686 460.613C377.686 459.144 378.307 457.736 379.412 456.697C380.518 455.658 382.017 455.075 383.58 455.075H456.465C458.028 455.075 459.527 455.658 460.632 456.697C461.738 457.736 462.359 459.144 462.359 460.613C462.359 462.082 461.738 463.491 460.632 464.53C459.527 465.568 458.028 466.152 456.465 466.152V466.152Z" fill="#E6E6E6"/>
<path d="M436.137 535.383H388.491C385.625 535.383 382.877 534.314 380.851 532.409C378.824 530.505 377.686 527.922 377.686 525.229C377.686 522.536 378.824 519.954 380.851 518.049C382.877 516.145 385.625 515.075 388.491 515.075H436.137C439.003 515.075 441.751 516.145 443.777 518.049C445.804 519.954 446.942 522.536 446.942 525.229C446.942 527.922 445.804 530.505 443.777 532.409C441.751 534.314 439.003 535.383 436.137 535.383V535.383Z" fill="#ADB5AF"/>
<path d="M582 557.537H383.58C382.017 557.537 380.518 556.954 379.412 555.915C378.307 554.877 377.686 553.468 377.686 551.999C377.686 550.53 378.307 549.121 379.412 548.083C380.518 547.044 382.017 546.46 383.58 546.46H582C583.563 546.46 585.062 547.044 586.167 548.083C587.273 549.121 587.894 550.53 587.894 551.999C587.894 553.468 587.273 554.877 586.167 555.915C585.062 556.954 583.563 557.537 582 557.537V557.537Z" fill="#E6E6E6"/>
<path d="M456.465 579.692H383.58C382.017 579.692 380.518 579.108 379.412 578.069C378.307 577.031 377.686 575.622 377.686 574.153C377.686 572.684 378.307 571.275 379.412 570.237C380.518 569.198 382.017 568.615 383.58 568.615H456.465C458.028 568.615 459.527 569.198 460.632 570.237C461.738 571.275 462.359 572.684 462.359 574.153C462.359 575.622 461.738 577.031 460.632 578.069C459.527 579.108 458.028 579.692 456.465 579.692V579.692Z" fill="#E6E6E6"/>
<path d="M609.995 364.151H230.835C228.622 364.148 226.5 363.321 224.934 361.85C223.369 360.379 222.489 358.385 222.486 356.304V259.38C222.489 257.3 223.369 255.306 224.934 253.835C226.5 252.364 228.622 251.536 230.835 251.534H609.995C612.209 251.536 614.331 252.364 615.896 253.835C617.461 255.306 618.342 257.3 618.344 259.38V356.304C618.342 358.385 617.461 360.379 615.896 361.85C614.331 363.321 612.209 364.148 609.995 364.151V364.151Z" fill="#ADB5AF"/>
<path d="M94.5263 479.463C98.1509 503.361 78.9571 609.24 81.0887 609.23L108.651 609.092C109.634 607.32 122.285 550.19 126.254 541.023C131.794 528.303 137.383 515.426 139.564 501.838C141.617 489.081 140.605 476.084 139.269 463.244C139.331 462.862 139.296 462.472 139.166 462.105C139.036 461.739 138.815 461.406 138.521 461.136C138.227 460.865 137.87 460.664 137.477 460.549C137.084 460.435 136.668 460.409 136.263 460.475L99.2805 458.684C91.658 458.315 89.8506 456.746 91.0097 463.779C91.8151 469.032 93.7208 474.146 94.5263 479.463Z" fill="#2F2E41"/>
<path d="M101.795 421.355C94.2807 431.508 86.4028 443.195 88.8978 455.352C90.7936 464.583 98.2785 471.737 105.341 478.429C133.572 505.069 189.238 622.615 189.238 622.615C216.101 606.461 188.597 623.077 215.857 606C213.441 605.824 158.541 420.367 153.993 420.118C135.595 418.973 119.722 417.284 101.795 421.355Z" fill="#2F2E41"/>
<path d="M131.517 324.708C127.701 321.509 100.878 311.645 100.878 311.645C100.385 311.583 99.8842 311.598 99.3959 311.687C97.8694 312.049 97.1729 313.831 97.499 315.273C97.825 316.714 95.15 340.403 94.4609 351.176C93.2531 369.976 105.035 412.564 104.931 413.866C104.527 418.51 102.363 422.864 98.8328 426.135C99.7504 427.206 158.03 429.353 161.994 430.62C162.794 429.666 157.481 362.115 157.237 358.299C156.829 352.506 136.556 329.095 131.517 324.708Z" fill="#5C2861"/>
<path d="M89.95 471.283C91.3311 470.637 92.5447 469.714 93.5053 468.58C94.466 467.446 95.1503 466.127 95.51 464.717C95.8698 463.308 95.8963 461.841 95.5876 460.421C95.2789 459 94.6426 457.661 93.7234 456.496L118.313 328.612L95.3667 328.328L78.2908 454.789C76.3118 456.37 75.0186 458.578 74.6562 460.995C74.2938 463.411 74.8874 465.869 76.3246 467.902C77.7617 469.936 79.9425 471.403 82.4538 472.026C84.965 472.649 87.6322 472.384 89.95 471.283H89.95Z" fill="#FFB8B8"/>
<path d="M89.7524 338.101C88.7954 338.167 87.8423 337.933 87.0413 337.437C85.6759 336.338 96.815 319.529 99.0153 319.279C106.176 318.504 113.543 318.246 120.488 320.064C127.433 321.883 133.965 326.018 137.069 332.138C138.365 334.686 128.965 347.507 124.692 345.624C119.574 343.372 96.4908 338.258 89.7524 338.101Z" fill="#E6E6E6"/>
<path d="M115.027 310.267C129.261 310.267 140.801 299.423 140.801 286.046C140.801 272.67 129.261 261.826 115.027 261.826C100.792 261.826 89.253 272.67 89.253 286.046C89.253 299.423 100.792 310.267 115.027 310.267Z" fill="#FFB8B8"/>
<path d="M89.7114 326.093C93.293 326.445 96.9114 325.948 100.236 324.646C103.56 323.345 106.484 321.28 108.739 318.643C110.995 316.005 112.511 312.877 113.149 309.547C113.786 306.216 113.524 302.788 112.388 299.577C111.362 296.679 109.648 294.023 108.708 291.099C107.769 288.176 107.743 284.719 109.827 282.375C113.903 277.789 121.759 280.673 128.043 279.762C134.739 278.79 139.876 272.753 140.412 266.406C140.948 260.06 137.428 253.779 132.187 249.743C126.947 245.708 120.188 243.721 113.445 243.098C104.786 242.299 96.0531 243.608 88.0882 246.899C80.1233 250.191 73.1943 255.354 67.9684 261.892C62.7425 268.429 59.3957 276.121 58.2504 284.227C57.105 292.332 58.1997 300.579 61.4289 308.171C64.2459 314.795 68.8473 320.964 75.383 324.592C81.9187 328.219 90.5506 328.916 97.0645 325.254" fill="#2F2E41"/>
<path d="M365.68 295.842H299.814C295.631 295.842 292.228 291.287 292.228 285.688C292.228 280.089 295.631 275.534 299.814 275.534H365.68C369.863 275.534 373.266 280.089 373.266 285.688C373.266 291.287 369.863 295.842 365.68 295.842Z" fill="white"/>
<path d="M542.709 317.996H298.122C296.558 317.996 295.059 317.413 293.954 316.374C292.849 315.335 292.228 313.927 292.228 312.458C292.228 310.989 292.849 309.58 293.954 308.541C295.059 307.503 296.558 306.919 298.122 306.919H542.709C544.272 306.919 545.771 307.503 546.876 308.541C547.982 309.58 548.603 310.989 548.603 312.458C548.603 313.927 547.982 315.335 546.876 316.374C545.771 317.413 544.272 317.996 542.709 317.996V317.996Z" fill="#E6E6E6"/>
<path d="M417.174 340.15H298.122C296.558 340.15 295.059 339.567 293.954 338.528C292.849 337.49 292.228 336.081 292.228 334.612C292.228 333.143 292.849 331.734 293.954 330.696C295.059 329.657 296.558 329.073 298.122 329.073H417.174C418.737 329.073 420.236 329.657 421.341 330.696C422.447 331.734 423.068 333.143 423.068 334.612C423.068 336.081 422.447 337.49 421.341 338.528C420.236 339.567 418.737 340.15 417.174 340.15V340.15Z" fill="#E6E6E6"/>
</g>
<defs>
<clipPath id="clip0_2_2">
<rect width="776" height="648" fill="white"/>
</clipPath>
</defs>
</svg>
